<?xml version="1.0" encoding="UTF-8"?>
<svg id="Ebene_1" data-name="Ebene 1" xmlns="http://www.w3.org/2000/svg" version="1.1" viewBox="0 0 203.7 30">
  <defs>
    <style>
      .cls-1 {
        fill: #fdfdfd;
        stroke-width: 0px;
      }
    </style>
  </defs>
  <path class="cls-1" d="M78,13.9c.7-9.2-6.4-12.5-14.9-13.3-8.8-.9-18.1.6-22.4,5.6-2.6,2.9-2.6,7.6,0,10.5,6.9,7.7,26.4,5.2,35,3.4v-5.1c-7.5.7-20.6,4.5-26.1-1h28.4ZM49,8.8c2.2-3.8,16.8-5.1,19.5,0h-19.5Z"/>
  <path class="cls-1" d="M161.3,9.8c-1.3-13.4-44.3-13.6-42.2,2.8.9,7.8,14,9.4,22.5,9.3,8.6-.2,21.4-2.5,19.7-12.1M141,16.4c-4.8.1-12.3-.7-12.8-4.6-1.2-8.1,23.2-8,23.9-1.4,1,4.7-6.2,5.9-11.1,6"/>
  <path class="cls-1" d="M12.2,6.1c3.6-1.5,18,.9,20.3,1.7V2.5C28.8,1,22.4.4,18.1.4,1,.4-6.7,9.9,13.2,13.3c1.2.2,16,1.7,10.4,2.9-6.1,1.4-16-.2-21.8-2.1l.2,5.7c0,1.3,23.2,3.9,29.2.1,3-1.4,5.5-4.6,2.6-7.9-3.5-3.9-13.3-4.2-18.8-4.7-2.4-.1-3.2-.6-2.8-1.2"/>
  <path class="cls-1" d="M174.9,8.8c2.6-1.6,11.6-3.8,15.6-3,2.1.4,3.5,1.3,3.5,2.8v12.9c.1,0,9.7.1,9.7.1v-13.3c0-11.1-23-7.7-28.7-5.5v-1.4h-9.9v19.9c.1,0,9.7.1,9.7.1v-12.6Z"/>
  <path class="cls-1" d="M81.7,21.6h9.1v-7.8h22.7c0-.1,0-4.9,0-4.9h-22.6c0-1.5,1-2.3,4.2-2.4h19.9V1.3h-26.7c-3.9.5-6.1,2.8-6.6,6.6v13.7Z"/>
  <rect class="cls-1" y="26.5" width="121.4" height="2.4"/>
  <rect class="cls-1" y="26.5" width="121.4" height="2.4"/>
  <path class="cls-1" d="M198.8,30h4c.6,0,1-.5,1-1v-.4c0-.6-.5-1-1-1h-3.1c-.2,0-.4-.2-.4-.4v-.4c0-.2.2-.4.4-.4h4v-.6h-4c-.6,0-1,.5-1,1v.4c0,.6.5,1,1,1h3.1c.2,0,.4.2.4.4v.4c0,.2-.2.4-.4.4h-4v.6ZM194.4,29.4h-3.5v-2.9h3.5c.2,0,.4.2.4.4v2.1c0,.2-.2.4-.4.4M190.3,30h4.1c.6,0,1-.5,1-1v-2.2c0-.6-.5-1-1-1h-4.1v4.2ZM186.5,30h.6v-1.4c0-.3-.1-.5-.3-.7.2-.2.3-.4.3-.7v-.4c0-.6-.5-1-1-1h-4.1v4.2h.6v-3.6h3.5c.2,0,.4.2.4.4v.4c0,.2-.2.4-.4.4h-3.2v.6h3.2c.2,0,.4.2.4.4v1.4ZM178.2,27.6h-3.8v-.8c0-.2.2-.4.4-.4h3.1c.2,0,.4.2.4.4v.8h0ZM178.2,30h.6v-3.2c0-.6-.5-1-1-1h-3.1c-.6,0-1,.5-1,1v3.2h.6v-1.8h3.8v1.8h0ZM166.4,26.4h3.1c.2,0,.4.2.4.4v2.2c0,.2-.2.4-.4.4h-3.1c-.2,0-.4-.2-.4-.4v-2.2c0-.2.2-.4.4-.4M166.4,30h3.1c.6,0,1-.5,1-1v-2.2c0-.6-.5-1-1-1h-3.1c-.6,0-1,.5-1,1v2.2c0,.5.4,1,1,1M161.2,29.4h-3.5v-2.9h3.5c.2,0,.4.2.4.4v.6c0,.2-.2.2-.4.2h-3.2v.6h3.2c.2,0,.4.2.4.4v.3c0,.2-.2.4-.4.4M157.1,30h4.1c.6,0,1-.5,1-1v-.4c0-.3-.1-.5-.3-.7.2-.2.3-.3.3-.5v-.6c0-.6-.5-1-1-1h-4.1v4.2ZM148.9,30h.6v-1.8h4.3v-.6h-4.3v-.8c0-.2.2-.4.4-.4h4v-.6h-4c-.6,0-1,.5-1,1v3.2ZM145.1,30h.6v-1.4c0-.3-.1-.5-.3-.7.2-.2.3-.4.3-.7v-.4c0-.6-.5-1-1-1h-4.1v4.2h.6v-3.6h3.5c.2,0,.4.2.4.4v.4c0,.2-.2.4-.4.4h-3.2v.6h3.2c.2,0,.4.2.4.4v1.4ZM133.3,30h3.1c.6,0,1-.5,1-1v-3.2h-.6v3.2c0,.2-.2.4-.4.4h-3.1c-.2,0-.4-.2-.4-.4v-3.2h-.6v3.2c0,.5.5,1,1,1M124.2,30h4c.6,0,1-.5,1-1v-.4c0-.6-.5-1-1-1h-3.2c-.2,0-.4-.2-.4-.4v-.4c0-.2.2-.4.4-.4h4v-.6h-4c-.6,0-1,.5-1,1v.4c0,.6.5,1,1,1h3.1c.2,0,.4.2.4.4v.4c0,.2-.2.4-.4.4h-4v.6h0Z"/>
  <path class="cls-1" d="M198.8,30h4c.6,0,1-.5,1-1v-.4c0-.6-.5-1-1-1h-3.1c-.2,0-.4-.2-.4-.4v-.4c0-.2.2-.4.4-.4h4v-.6h-4c-.6,0-1,.5-1,1v.4c0,.6.5,1,1,1h3.1c.2,0,.4.2.4.4v.4c0,.2-.2.4-.4.4h-4v.6ZM194.4,29.4h-3.5v-2.9h3.5c.2,0,.4.2.4.4v2.1c0,.2-.2.4-.4.4M190.3,30h4.1c.6,0,1-.5,1-1v-2.2c0-.6-.5-1-1-1h-4.1v4.2ZM186.5,30h.6v-1.4c0-.3-.1-.5-.3-.7.2-.2.3-.4.3-.7v-.4c0-.6-.5-1-1-1h-4.1v4.2h.6v-3.6h3.5c.2,0,.4.2.4.4v.4c0,.2-.2.4-.4.4h-3.2v.6h3.2c.2,0,.4.2.4.4v1.4ZM178.2,27.6h-3.8v-.8c0-.2.2-.4.4-.4h3.1c.2,0,.4.2.4.4v.8h0ZM178.2,30h.6v-3.2c0-.6-.5-1-1-1h-3.1c-.6,0-1,.5-1,1v3.2h.6v-1.8h3.8v1.8h0ZM166.4,26.4h3.1c.2,0,.4.2.4.4v2.2c0,.2-.2.4-.4.4h-3.1c-.2,0-.4-.2-.4-.4v-2.2c0-.2.2-.4.4-.4M166.4,30h3.1c.6,0,1-.5,1-1v-2.2c0-.6-.5-1-1-1h-3.1c-.6,0-1,.5-1,1v2.2c0,.5.4,1,1,1M161.2,29.4h-3.5v-2.9h3.5c.2,0,.4.2.4.4v.6c0,.2-.2.2-.4.2h-3.2v.6h3.2c.2,0,.4.2.4.4v.3c0,.2-.2.4-.4.4M157.1,30h4.1c.6,0,1-.5,1-1v-.4c0-.3-.1-.5-.3-.7.2-.2.3-.3.3-.5v-.6c0-.6-.5-1-1-1h-4.1v4.2ZM148.9,30h.6v-1.8h4.3v-.6h-4.3v-.8c0-.2.2-.4.4-.4h4v-.6h-4c-.6,0-1,.5-1,1v3.2ZM145.1,30h.6v-1.4c0-.3-.1-.5-.3-.7.2-.2.3-.4.3-.7v-.4c0-.6-.5-1-1-1h-4.1v4.2h.6v-3.6h3.5c.2,0,.4.2.4.4v.4c0,.2-.2.4-.4.4h-3.2v.6h3.2c.2,0,.4.2.4.4v1.4ZM133.3,30h3.1c.6,0,1-.5,1-1v-3.2h-.6v3.2c0,.2-.2.4-.4.4h-3.1c-.2,0-.4-.2-.4-.4v-3.2h-.6v3.2c0,.5.5,1,1,1M124.2,30h4c.6,0,1-.5,1-1v-.4c0-.6-.5-1-1-1h-3.2c-.2,0-.4-.2-.4-.4v-.4c0-.2.2-.4.4-.4h4v-.6h-4c-.6,0-1,.5-1,1v.4c0,.6.5,1,1,1h3.1c.2,0,.4.2.4.4v.4c0,.2-.2.4-.4.4h-4v.6h0Z"/>
</svg>