<?xml version="1.0" encoding="utf-8"?>
<!-- Generator: Adobe Illustrator 19.0.0, SVG Export Plug-In . SVG Version: 6.00 Build 0)  -->
<svg version="1.1" id="Ebene_1" xmlns="http://www.w3.org/2000/svg" xmlns:xlink="http://www.w3.org/1999/xlink" x="0px" y="0px"
	 width="203.7px" height="30px" viewBox="0 0 203.7 30" style="enable-background:new 0 0 203.7 30;" xml:space="preserve">
<style type="text/css">
	.st0{fill:#020202;}
</style>
<g>
	<g>
		<path class="st0" d="M78,13.9c0.7-9.2-6.4-12.5-14.9-13.3C54.3-0.3,45,1.2,40.7,6.2c-2.6,2.9-2.6,7.6,0,10.5
			c6.9,7.7,26.4,5.2,35,3.4l0-5.1c-7.5,0.7-20.6,4.5-26.1-1L78,13.9z M49,8.8c2.2-3.8,16.8-5.1,19.5,0L49,8.8z"/>
		<path class="st0" d="M161.3,9.8C160-3.6,117-3.8,119.1,12.6c0.9,7.8,14,9.4,22.5,9.3C150.2,21.7,163,19.4,161.3,9.8 M141,16.4
			c-4.8,0.1-12.3-0.7-12.8-4.6c-1.2-8.1,23.2-8,23.9-1.4C153.1,15.1,145.9,16.3,141,16.4"/>
		<path class="st0" d="M12.2,6.1c3.6-1.5,18,0.9,20.3,1.7l-0.1-5.3c-3.6-1.5-10-2.1-14.3-2.1c-17.1,0-24.8,9.5-4.9,12.9
			c1.2,0.2,16,1.7,10.4,2.9c-6.1,1.4-16-0.2-21.8-2.1L2,19.8c0,1.3,23.2,3.9,29.2,0.1c3-1.4,5.5-4.6,2.6-7.9
			c-3.5-3.9-13.3-4.2-18.8-4.7C12.6,7.2,11.8,6.7,12.2,6.1"/>
		<path class="st0" d="M174.9,8.8c2.6-1.6,11.6-3.8,15.6-3c2.1,0.4,3.5,1.3,3.5,2.8l0.1,12.9l9.6,0.1l0.1-13.3
			c-0.1-11.1-23.1-7.7-28.8-5.5l-0.1-1.4l-9.8,0l0.1,19.9l9.6,0.1L174.9,8.8z"/>
		<path class="st0" d="M81.7,21.6l9.1,0l0-7.8l22.7-0.1l0.1-4.8L91,8.9c0-1.5,1-2.3,4.2-2.4l19.9,0l0-5.2l-26.7,0
			c-3.9,0.5-6.1,2.8-6.6,6.6L81.7,21.6z"/>
		<rect y="26.5" class="st0" width="121.4" height="2.4"/>
		<rect y="26.5" class="st0" width="121.4" height="2.4"/>
		<path class="st0" d="M198.8,30h4c0.6,0,1-0.5,1-1v-0.4c0-0.6-0.5-1-1-1h-3.1c-0.2,0-0.4-0.2-0.4-0.4v-0.4c0-0.2,0.2-0.4,0.4-0.4h4
			v-0.6h-4c-0.6,0-1,0.5-1,1v0.4c0,0.6,0.5,1,1,1h3.1c0.2,0,0.4,0.2,0.4,0.4V29c0,0.2-0.2,0.4-0.4,0.4h-4V30z M194.4,29.4h-3.5v-2.9
			h3.5c0.2,0,0.4,0.2,0.4,0.4V29C194.8,29.2,194.6,29.4,194.4,29.4 M190.3,30h4.1c0.6,0,1-0.5,1-1v-2.2c0-0.6-0.5-1-1-1h-4.1V30z
			 M186.5,30h0.6v-1.4c0-0.3-0.1-0.5-0.3-0.7c0.2-0.2,0.3-0.4,0.3-0.7v-0.4c0-0.6-0.5-1-1-1H182V30h0.6v-3.6h3.5
			c0.2,0,0.4,0.2,0.4,0.4v0.4c0,0.2-0.2,0.4-0.4,0.4h-3.2v0.6h3.2c0.2,0,0.4,0.2,0.4,0.4V30z M178.2,27.6h-3.8v-0.8
			c0-0.2,0.2-0.4,0.4-0.4h3.1c0.2,0,0.4,0.2,0.4,0.4V27.6z M178.2,30h0.6v-3.2c0-0.6-0.5-1-1-1h-3.1c-0.6,0-1,0.5-1,1V30h0.6v-1.8
			h3.8V30z M166.4,26.4h3.1c0.2,0,0.4,0.2,0.4,0.4V29c0,0.2-0.2,0.4-0.4,0.4h-3.1c-0.2,0-0.4-0.2-0.4-0.4v-2.2
			C166,26.6,166.2,26.4,166.4,26.4 M166.4,30h3.1c0.6,0,1-0.5,1-1v-2.2c0-0.6-0.5-1-1-1h-3.1c-0.6,0-1,0.5-1,1V29
			C165.4,29.5,165.8,30,166.4,30 M161.2,29.4h-3.5v-2.9h3.5c0.2,0,0.4,0.2,0.4,0.4v0.6c0,0.2-0.2,0.2-0.4,0.2H158v0.6h3.2
			c0.2,0,0.4,0.2,0.4,0.4V29C161.6,29.2,161.4,29.4,161.2,29.4 M157.1,30h4.1c0.6,0,1-0.5,1-1v-0.4c0-0.3-0.1-0.5-0.3-0.7
			c0.2-0.2,0.3-0.3,0.3-0.5v-0.6c0-0.6-0.5-1-1-1h-4.1V30z M148.9,30h0.6v-1.8h4.3v-0.6h-4.3v-0.8c0-0.2,0.2-0.4,0.4-0.4h4v-0.6h-4
			c-0.6,0-1,0.5-1,1V30z M145.1,30h0.6v-1.4c0-0.3-0.1-0.5-0.3-0.7c0.2-0.2,0.3-0.4,0.3-0.7v-0.4c0-0.6-0.5-1-1-1h-4.1V30h0.6v-3.6
			h3.5c0.2,0,0.4,0.2,0.4,0.4v0.4c0,0.2-0.2,0.4-0.4,0.4h-3.2v0.6h3.2c0.2,0,0.4,0.2,0.4,0.4V30z M133.3,30h3.1c0.6,0,1-0.5,1-1
			v-3.2h-0.6V29c0,0.2-0.2,0.4-0.4,0.4h-3.1c-0.2,0-0.4-0.2-0.4-0.4v-3.2h-0.6V29C132.3,29.5,132.8,30,133.3,30 M124.2,30h4
			c0.6,0,1-0.5,1-1v-0.4c0-0.6-0.5-1-1-1H125c-0.2,0-0.4-0.2-0.4-0.4v-0.4c0-0.2,0.2-0.4,0.4-0.4h4v-0.6h-4c-0.6,0-1,0.5-1,1v0.4
			c0,0.6,0.5,1,1,1h3.1c0.2,0,0.4,0.2,0.4,0.4V29c0,0.2-0.2,0.4-0.4,0.4h-4V30z"/>
		<path class="st0" d="M198.8,30h4c0.6,0,1-0.5,1-1v-0.4c0-0.6-0.5-1-1-1h-3.1c-0.2,0-0.4-0.2-0.4-0.4v-0.4c0-0.2,0.2-0.4,0.4-0.4h4
			v-0.6h-4c-0.6,0-1,0.5-1,1v0.4c0,0.6,0.5,1,1,1h3.1c0.2,0,0.4,0.2,0.4,0.4V29c0,0.2-0.2,0.4-0.4,0.4h-4V30z M194.4,29.4h-3.5v-2.9
			h3.5c0.2,0,0.4,0.2,0.4,0.4V29C194.8,29.2,194.6,29.4,194.4,29.4 M190.3,30h4.1c0.6,0,1-0.5,1-1v-2.2c0-0.6-0.5-1-1-1h-4.1V30z
			 M186.5,30h0.6v-1.4c0-0.3-0.1-0.5-0.3-0.7c0.2-0.2,0.3-0.4,0.3-0.7v-0.4c0-0.6-0.5-1-1-1H182V30h0.6v-3.6h3.5
			c0.2,0,0.4,0.2,0.4,0.4v0.4c0,0.2-0.2,0.4-0.4,0.4h-3.2v0.6h3.2c0.2,0,0.4,0.2,0.4,0.4V30z M178.2,27.6h-3.8v-0.8
			c0-0.2,0.2-0.4,0.4-0.4h3.1c0.2,0,0.4,0.2,0.4,0.4V27.6z M178.2,30h0.6v-3.2c0-0.6-0.5-1-1-1h-3.1c-0.6,0-1,0.5-1,1V30h0.6v-1.8
			h3.8V30z M166.4,26.4h3.1c0.2,0,0.4,0.2,0.4,0.4V29c0,0.2-0.2,0.4-0.4,0.4h-3.1c-0.2,0-0.4-0.2-0.4-0.4v-2.2
			C166,26.6,166.2,26.4,166.4,26.4 M166.4,30h3.1c0.6,0,1-0.5,1-1v-2.2c0-0.6-0.5-1-1-1h-3.1c-0.6,0-1,0.5-1,1V29
			C165.4,29.5,165.8,30,166.4,30 M161.2,29.4h-3.5v-2.9h3.5c0.2,0,0.4,0.2,0.4,0.4v0.6c0,0.2-0.2,0.2-0.4,0.2H158v0.6h3.2
			c0.2,0,0.4,0.2,0.4,0.4V29C161.6,29.2,161.4,29.4,161.2,29.4 M157.1,30h4.1c0.6,0,1-0.5,1-1v-0.4c0-0.3-0.1-0.5-0.3-0.7
			c0.2-0.2,0.3-0.3,0.3-0.5v-0.6c0-0.6-0.5-1-1-1h-4.1V30z M148.9,30h0.6v-1.8h4.3v-0.6h-4.3v-0.8c0-0.2,0.2-0.4,0.4-0.4h4v-0.6h-4
			c-0.6,0-1,0.5-1,1V30z M145.1,30h0.6v-1.4c0-0.3-0.1-0.5-0.3-0.7c0.2-0.2,0.3-0.4,0.3-0.7v-0.4c0-0.6-0.5-1-1-1h-4.1V30h0.6v-3.6
			h3.5c0.2,0,0.4,0.2,0.4,0.4v0.4c0,0.2-0.2,0.4-0.4,0.4h-3.2v0.6h3.2c0.2,0,0.4,0.2,0.4,0.4V30z M133.3,30h3.1c0.6,0,1-0.5,1-1
			v-3.2h-0.6V29c0,0.2-0.2,0.4-0.4,0.4h-3.1c-0.2,0-0.4-0.2-0.4-0.4v-3.2h-0.6V29C132.3,29.5,132.8,30,133.3,30 M124.2,30h4
			c0.6,0,1-0.5,1-1v-0.4c0-0.6-0.5-1-1-1H125c-0.2,0-0.4-0.2-0.4-0.4v-0.4c0-0.2,0.2-0.4,0.4-0.4h4v-0.6h-4c-0.6,0-1,0.5-1,1v0.4
			c0,0.6,0.5,1,1,1h3.1c0.2,0,0.4,0.2,0.4,0.4V29c0,0.2-0.2,0.4-0.4,0.4h-4V30z"/>
	</g>
</g>
</svg>
