<?xml version="1.0" encoding="UTF-8"?>
<svg xmlns="http://www.w3.org/2000/svg" version="1.1" viewBox="0 0 78.3 17.6">
  <defs>
    <style>
      .cls-1 {
        stroke: #000;
        stroke-miterlimit: 10;
        stroke-width: .2px;
      }

      .cls-1, .cls-2 {
        fill: #ffc41f;
      }

      .cls-3, .cls-4 {
        fill: #994ff5;
      }

      .cls-5 {
        fill: none;
      }

      .cls-4 {
        opacity: .4;
      }
    </style>
  </defs>
  <!-- Generator: Adobe Illustrator 28.7.1, SVG Export Plug-In . SVG Version: 1.2.0 Build 142)  -->
  <g>
    <g id="Layer_1">
      <circle class="cls-2" cx="11.9" cy="6.6" r="6.6"/>
      <polygon class="cls-3" points="5.9 4 0 13.1 11.9 13.1 5.9 4"/>
      <polygon class="cls-3" points="17.8 4 11.9 13.1 23.8 13.1 17.8 4"/>
      <polygon class="cls-4" points="11.9 5.7 7.1 13.1 16.7 13.1 11.9 5.7"/>
      <g>
        <path d="M42.3,13.3V4.3h1.9v8.9h-1.9ZM44,13.3v-2.1h1.2c.3,0,.6,0,.8-.2.2-.1.5-.3.6-.5.2-.2.3-.5.4-.8,0-.3.1-.6.1-1s0-.7-.1-1c0-.3-.2-.5-.4-.7-.2-.2-.4-.3-.6-.4s-.5-.2-.8-.2h-1.2v-2.1h1.1c.7,0,1.2.1,1.7.3.5.2.9.5,1.2.9.3.4.6.9.7,1.4s.2,1.1.2,1.7v.3c0,.5,0,1.1-.2,1.6-.2.5-.4,1-.7,1.4-.3.4-.7.7-1.2,1s-1.1.4-1.7.4h-1.1Z"/>
        <path d="M52.6,13.5c-.5,0-.9,0-1.2-.3-.4-.2-.7-.5-.9-.8-.2-.3-.4-.7-.6-1.1-.1-.4-.2-.8-.2-1.3v-.2c0-.5,0-.9.2-1.3.1-.4.3-.8.6-1.1.2-.3.5-.6.9-.8.4-.2.8-.3,1.2-.3s1.1.2,1.5.5.7.7.9,1.3c.2.5.3,1.1.3,1.7v.7h-4.9v-1.2h3.8l-.6.5c0-.4,0-.7-.1-1,0-.3-.2-.5-.4-.6-.2-.1-.4-.2-.6-.2s-.4,0-.6.2c-.2.1-.3.3-.4.6,0,.3-.1.6-.1,1s0,.7.1,1c0,.3.2.5.4.6.2.1.4.2.7.2s.5,0,.6-.2c.2-.1.3-.2.3-.4h1.7c0,.5-.2.9-.5,1.2-.2.4-.5.6-.9.8s-.8.3-1.3.3Z"/>
        <path d="M58.6,13.4c-.8,0-1.4-.2-1.9-.6-.5-.4-.7-1-.7-1.7h1.6c0,.2.1.4.3.5.2.1.4.2.8.2s.4,0,.6-.1c.2,0,.3-.2.3-.4s0-.3-.2-.4c-.1-.1-.4-.2-.7-.2h-.4c-.7-.1-1.2-.4-1.6-.8-.3-.4-.5-.9-.5-1.4s0-.9.3-1.2.5-.6.8-.7c.4-.2.8-.2,1.2-.2.7,0,1.3.2,1.8.6.5.4.7,1,.7,1.7h-1.6c0-.2-.1-.4-.3-.5-.2-.1-.4-.2-.7-.2s-.4,0-.5.1c-.1,0-.2.2-.2.4s0,.3.2.4c.1,0,.3.1.6.2h.4c.7.1,1.2.4,1.6.8.4.4.6.9.6,1.5s-.1.9-.3,1.2c-.2.3-.5.6-.9.8-.4.2-.8.3-1.3.3Z"/>
        <path d="M61.6,8.1v-1.6h2.5v1.6h-2.5ZM63,6c-.3,0-.6-.1-.7-.3-.2-.2-.2-.5-.2-.8s0-.6.2-.8c.2-.2.4-.3.7-.3s.6.1.7.3c.2.2.2.5.2.8s0,.6-.2.8c-.2.2-.4.3-.7.3ZM62.3,13.2v-6.7h1.8v6.7h-1.8Z"/>
        <path d="M67.7,15.9c-.3,0-.6,0-.8,0-.3,0-.5,0-.8,0v-1.8c.2,0,.5,0,.8,0,.3,0,.5,0,.8,0,.4,0,.7,0,1-.2.3-.1.5-.3.6-.5s.2-.5.2-.8v-1.4l.3-.7c0,.6-.1,1.1-.3,1.5-.2.4-.4.7-.7,1-.3.2-.7.3-1.1.3s-.7,0-1-.2-.6-.4-.8-.7c-.2-.3-.4-.6-.5-1-.1-.4-.2-.8-.2-1.3v-.3c0-.5,0-.9.2-1.3.1-.4.3-.8.5-1.1.2-.3.5-.5.8-.7.3-.2.7-.2,1-.2s.8.1,1.1.4c.3.2.6.6.7,1,.2.5.3,1,.3,1.6h-.2c0,0,0-2.8,0-2.8h1.4v5.9c0,.8-.1,1.5-.4,2-.3.5-.6.9-1.1,1.1-.5.2-1.1.4-1.9.4ZM68.2,11.5c.2,0,.4,0,.6-.2s.3-.3.4-.5c.1-.2.2-.5.2-.8v-.3c0-.3,0-.6-.2-.8-.1-.2-.3-.4-.4-.5-.2-.1-.4-.2-.6-.2s-.5,0-.6.2c-.2.1-.3.3-.4.6-.1.2-.2.5-.2.9s0,.6.2.9c.1.2.2.4.4.6.2.1.4.2.6.2Z"/>
        <path d="M72.4,13.2v-6.7h1.4v2.9h0c0-.7,0-1.3.2-1.7.1-.5.4-.8.7-1s.6-.3,1.1-.3h0c.6,0,1.1.3,1.5.8.3.5.5,1.3.5,2.3v3.8h-1.8v-3.9c0-.3,0-.6-.2-.8-.2-.2-.4-.3-.6-.3s-.5,0-.6.3-.2.5-.2.8v3.9h-1.8Z"/>
      </g>
      <rect class="cls-5" x="25.2" y="11" width="30.5" height="2.2"/>
      <g>
        <path class="cls-1" d="M28,13.9c-.5,0-.9,0-1.2-.2-.4-.2-.7-.4-1-.7-.3-.3-.5-.7-.7-1.1-.2-.4-.3-.8-.3-1.3v-.2c0-.5,0-.9,0-1.4,0-.4.2-.8.4-1.2.2-.4.5-.7.8-.9s.7-.4,1.1-.4c.6,0,1.1,0,1.5.3s.8.7,1.1,1.2c.3.5.4,1.1.5,1.7v.7c0,0-4.7.5-4.7.5v-1.2c-.1,0,3.6-.4,3.6-.4l-.6.6c0-.4-.1-.7-.2-1-.1-.3-.3-.5-.4-.6-.2-.1-.4-.2-.6-.1-.2,0-.4.1-.6.3-.2.2-.3.4-.3.7,0,.3,0,.6,0,1.1,0,.4.1.7.2,1,.1.3.3.5.5.6s.4.2.7.1c.2,0,.4-.1.6-.2.1-.1.2-.3.3-.5l1.6-.2c0,.5-.1.9-.3,1.3-.2.4-.5.7-.8,1-.3.2-.7.4-1.2.4Z"/>
        <path class="cls-1" d="M31.7,13.2l-.8-6.8,1.4-.2.3,3h0c0-.7,0-1.3,0-1.8,0-.5.3-.9.5-1.1.2-.3.6-.4,1-.5h0c.4,0,.8,0,1,.2.3.2.5.5.7,1,.2.5.3,1,.4,1.7h-.4c0-.7,0-1.3,0-1.7,0-.5.3-.9.5-1.1s.6-.4,1-.5h0c.4,0,.8,0,1.1.2.3.2.6.5.8,1,.2.5.3,1,.4,1.7l.4,3.9-1.8.2-.4-4c0-.3-.1-.6-.3-.8-.2-.2-.4-.3-.6-.3s-.4.2-.5.4c-.1.2-.2.5-.1.8l.4,3.9-1.8.2-.4-4c0-.3-.1-.6-.3-.8-.2-.2-.4-.3-.6-.3s-.4.2-.5.4c-.1.2-.2.5-.1.8l.4,3.9-1.8.2Z"/>
      </g>
    </g>
  </g>
</svg>